<svg width="128" height="128" viewBox="0 0 128 128" fill="none" xmlns="http://www.w3.org/2000/svg">
<rect width="128" height="128" fill="#39BFAD"/>
<g clip-path="url(#clip0_301_10652)">
<path d="M34.8906 50.7339C32.3528 50.7339 30.3978 52.0259 29.2331 54.235C28.4011 51.9015 26.3378 50.7339 23.6341 50.7339C21.429 50.7339 19.724 51.7762 18.6002 53.6512V51.2518H14V71.5295H18.6002V60.236C18.6002 56.6939 20.015 54.8598 22.3027 54.8598C24.4245 54.8598 25.3807 56.1767 25.3807 58.8435V71.5295H29.8976L29.7726 59.5687C29.7726 56.1518 31.3116 54.859 33.475 54.859C35.5134 54.859 36.4705 56.1759 36.4705 58.8427V71.5287H41.1124L41.0291 57.5675C41.0299 53.0265 38.7173 50.7339 34.8906 50.7339Z" fill="#F9F9F9"/>
<path d="M52.7336 50.7935C48.1703 50.7935 44.3131 53.5775 44.5616 58.606L48.834 58.9384C48.6264 56.3206 50.0788 54.6576 52.8579 54.6576C55.3467 54.6576 56.7984 55.9874 56.7984 57.7749V58.5225L52.1525 59.3118C47.0505 60.143 44.5199 62.3039 44.5199 66.1688C44.5199 69.1608 46.8012 72.1528 51.3645 72.1528C53.8951 72.1528 55.8445 70.9066 56.7984 69.2026V71.5297H61.0708V58.0238C61.0708 53.5775 58.0841 50.7935 52.7336 50.7935ZM56.7984 63.0523C56.7984 66.0443 54.9315 68.039 52.235 68.039C50.2023 68.039 48.8332 67.0834 48.8332 65.6283C48.8332 63.9661 50.3265 63.2177 52.8154 62.7608L56.7976 62.0959V63.0523H56.7984Z" fill="#F9F9F9"/>
<path d="M65.0867 44V71.5297H69.65V44H65.0867Z" fill="#F9F9F9"/>
<path d="M102.662 50.7935C98.0987 50.7935 94.2416 53.5775 94.49 58.606L98.7624 58.9384C98.5548 56.3206 100.006 54.6576 102.786 54.6576C105.275 54.6576 106.727 55.9874 106.727 57.7749V58.5225L102.081 59.3118C96.9781 60.143 94.4484 62.3039 94.4484 66.1688C94.4484 69.1608 96.7296 72.1528 101.293 72.1528C103.824 72.1528 105.773 70.9066 106.728 69.2026V71.5297H111V58.0238C111 53.5775 108.013 50.7935 102.662 50.7935ZM106.727 63.0523C106.727 66.0443 104.86 68.039 102.164 68.039C100.131 68.039 98.7616 67.0834 98.7616 65.6283C98.7616 63.9661 100.255 63.2177 102.744 62.7608L106.726 62.0959V63.0523H106.727Z" fill="#F9F9F9"/>
<path d="M85.8402 69.5469H78.6653C77.4277 69.5469 76.6766 68.874 76.6766 68.0669C76.6766 67.125 77.3836 66.542 78.5331 66.542H82.8784C87.166 66.542 90.7017 63.134 90.7017 58.874C90.7017 57.215 90.216 55.8691 89.1988 54.614L92.991 54.7987L93.0006 51.2502H88.2714C86.5039 51.2502 85.3104 51.0382 84.0495 50.9402C83.4339 50.8431 82.7846 50.7925 82.1073 50.7925C76.5459 50.7925 73.508 53.8849 73.508 58.6941C73.508 60.9362 74.4803 62.7751 76.1163 64.3C73.9505 64.6589 72.4475 66.4529 72.4475 68.201C72.4475 69.5011 73.0222 70.757 74.2599 71.5191C72.4475 72.775 71.6523 74.479 71.6523 76.6311C71.6523 80.353 74.5252 82.999 79.8733 82.999H84.7789C89.5531 82.999 93.0888 80.2631 93.0888 76.0031C93.0888 72.1928 90.2601 69.5469 85.8402 69.5469ZM82.0832 54.4671C85.1068 54.4671 86.1496 56.485 86.1496 58.7391C86.1496 60.9932 85.0034 63.0111 82.0832 63.0111C79.1631 63.0111 78.0168 60.9932 78.0168 58.7391C78.0168 56.4859 79.0597 54.4671 82.0832 54.4671ZM85.0001 79.2328H79.9174C77.5303 79.2328 76.3375 77.9328 76.3375 76.2729C76.3375 74.972 76.8682 73.268 79.6969 73.268H85.0891C87.1668 73.268 88.4485 74.3891 88.4485 76.0931C88.4477 78.0669 87.0778 79.2328 85.0001 79.2328Z" fill="#F9F9F9"/>
</g>
<defs>
<clipPath id="clip0_301_10652">
<rect width="97" height="39" fill="white" transform="translate(14 44)"/>
</clipPath>
</defs>
</svg>
